HIERARCHY
ROOT root
{
	OFFSET	0	13.1	24.9
	CHANNELS 6  Xposition Yposition Zposition Xrotation Yrotation Zrotation
	JOINT spine_1
	{
		OFFSET	0	9.99999	0
		CHANNELS 3  Xrotation Yrotation Zrotation
		JOINT spine_2
		{
			OFFSET	0	112	-10
			CHANNELS 3  Xrotation Yrotation Zrotation
			JOINT spine_3
			{
				OFFSET	0	206.5	19.3
				CHANNELS 3  Xrotation Yrotation Zrotation
				JOINT spine_4
				{
					OFFSET	0	110.4	14.6
					CHANNELS 3  Xrotation Yrotation Zrotation
					JOINT neck_1
					{
						OFFSET	0	71.8	-50.3
						CHANNELS 3  Xrotation Yrotation Zrotation
						JOINT neck_2
						{
							OFFSET	0	86.2	-25.8
							CHANNELS 3  Xrotation Yrotation Zrotation
							JOINT head_ee
							{
								OFFSET	0	179.8	-8.7
								CHANNELS 3  Xrotation Yrotation Zrotation
								End Site
								{
									OFFSET	1	0	0
								}
							}
						}
					}
					JOINT left_clavicle
					{
						OFFSET	-43.2	22.4	-70.8
						CHANNELS 3  Xrotation Yrotation Zrotation
						JOINT left_shoulder
						{
							OFFSET	-93.9	-5.79999	48.7
							CHANNELS 3  Xrotation Yrotation Zrotation
							JOINT left_elbow
							{
								OFFSET	-291.4	-30.8	15.2
								CHANNELS 3  Xrotation Yrotation Zrotation
								JOINT left_lowarm_twist
								{
									OFFSET	-110.7	-3.89999	13.6
									CHANNELS 3  Xrotation Yrotation Zrotation
									JOINT left_hand
									{
										OFFSET	-110.7	-3.89999	13.6
										CHANNELS 3  Xrotation Yrotation Zrotation
										JOINT left_ee
										{
											OFFSET	-80.8	-5.10001	12.1
											CHANNELS 3  Xrotation Yrotation Zrotation
											End Site
											{
												OFFSET	1	0	0
											}
										}
									}
								}
							}
						}
					}
					JOINT right_clavicle
					{
						OFFSET	43.2	22.4	-70.8
						CHANNELS 3  Xrotation Yrotation Zrotation
						JOINT right_shoulder
						{
							OFFSET	93.9	-5.79999	48.7
							CHANNELS 3  Xrotation Yrotation Zrotation
							JOINT right_elbow
							{
								OFFSET	291.4	-30.8	15.2
								CHANNELS 3  Xrotation Yrotation Zrotation
								JOINT right_lowarm_twist
								{
									OFFSET	110.7	-3.89999	13.6
									CHANNELS 3  Xrotation Yrotation Zrotation
									JOINT right_hand
									{
										OFFSET	110.7	-3.89999	13.6
										CHANNELS 3  Xrotation Yrotation Zrotation
										JOINT right_ee
										{
											OFFSET	80.8	-5.10001	12.1
											CHANNELS 3  Xrotation Yrotation Zrotation
											End Site
											{
												OFFSET	1	0	0
											}
										}
									}
								}
							}
						}
					}
				}
			}
		}
	}
	JOINT left_hip
	{
		OFFSET	-82.8	-127.5	0.300001
		CHANNELS 3  Xrotation Yrotation Zrotation
		JOINT left_knee
		{
			OFFSET	-28.2	-396.7	2.2
			CHANNELS 3  Xrotation Yrotation Zrotation
			JOINT left_ankle
			{
				OFFSET	-11.7	-411.3	35.4
				CHANNELS 3  Xrotation Yrotation Zrotation
				JOINT left_toes
				{
					OFFSET	0	-60	-88.6
					CHANNELS 3  Xrotation Yrotation Zrotation
					JOINT left_foot_ee
					{
						OFFSET	-22.5	-16.5	-42.2
						CHANNELS 3  Xrotation Yrotation Zrotation
						End Site
						{
							OFFSET	1	0	0
						}
					}
				}
			}
		}
	}
	JOINT right_hip
	{
		OFFSET	82.8	-127.5	0.300001
		CHANNELS 3  Xrotation Yrotation Zrotation
		JOINT right_knee
		{
			OFFSET	28.2	-396.7	2.2
			CHANNELS 3  Xrotation Yrotation Zrotation
			JOINT right_ankle
			{
				OFFSET	11.7	-411.3	35.4
				CHANNELS 3  Xrotation Yrotation Zrotation
				JOINT right_toes
				{
					OFFSET	0	-60	-88.6
					CHANNELS 3  Xrotation Yrotation Zrotation
					JOINT right_foot_ee
					{
						OFFSET	22.5	-16.5	-42.2
						CHANNELS 3  Xrotation Yrotation Zrotation
						End Site
						{
							OFFSET	1	0	0
						}
					}
				}
			}
		}
	}
}
MOTION
Frames: 10
Frame Time: 0.02
1041.4 574.639 -1682.42 -6.36694276795 29.9167829813 7.05161862868 3.50254 0.0303544 -0.346971 3.50261 0.0523714 -0.344336 3.50226 0.103451 -0.332578 3.50211 0.0496286 -0.344742 -10.752 10.8384 -1.55057 -10.9349 21.4916 1.38777 -0.0 0.0 -0.0 4.71311 21.9229 9.25218 -36.0167 -37.5084 64.3773 0.281276 -7.93246 0.0195022 -45.9899 -3.60952 4.45691 2.05809 3.27352 15.1686 -0.0 0.0 -0.0 10.6851 7.54076 -21.3371 9.38358 20.8052 -65.8327 0.720996 19.6547 -0.124894 38.3051 0.264052 4.79616 -0.419518 -2.86563 1.57435 0.0 0.0 0.0 27.6106 -4.3127 -10.3588 4.34824 -0.203326 -0.636005 -15.3724 29.2717 2.46157 -14.0598 0.0 0.0 -0.0 0.0 -0.0 11.0696 3.61056 -2.26504 -32.3524 0.0532031 -4.89931 26.0511 11.2338 3.62387 3.18477 -0.0 -0.0 0.0 0.0 0.0 
1041.4 574.639 -1682.42 -6.40351382062 30.4783302243 7.12432606298 3.50254 0.0303544 -0.346971 3.50261 0.0523714 -0.344336 3.50226 0.103451 -0.332578 3.50211 0.0496286 -0.344742 -10.752 10.8384 -1.55057 -10.9349 21.4916 1.38777 -0.0 0.0 -0.0 4.71311 21.9229 9.25218 -36.0167 -37.5084 64.3773 0.281276 -7.93246 0.0195022 -45.9899 -3.60952 4.45691 2.05809 3.27352 15.1686 -0.0 0.0 -0.0 10.6851 7.54076 -21.3371 9.38358 20.8052 -65.8327 0.720996 19.6547 -0.124894 38.3051 0.264052 4.79616 -0.419518 -2.86563 1.57435 0.0 0.0 0.0 27.6106 -4.3127 -10.3588 4.34824 -0.203326 -0.636005 -15.3724 29.2717 2.46157 -14.0598 0.0 0.0 -0.0 0.0 -0.0 11.0696 3.61056 -2.26504 -32.3524 0.0532031 -4.89931 26.0511 11.2338 3.62387 3.18477 -0.0 -0.0 0.0 0.0 0.0 
1041.4 574.639 -1682.42 -6.45666243534 31.2671468222 7.22790028768 3.50254 0.0303544 -0.346971 3.50261 0.0523714 -0.344336 3.50226 0.103451 -0.332578 3.50211 0.0496286 -0.344742 -10.752 10.8384 -1.55057 -10.9349 21.4916 1.38777 -0.0 0.0 -0.0 4.71311 21.9229 9.25218 -36.0167 -37.5084 64.3773 0.281276 -7.93246 0.0195022 -45.9899 -3.60952 4.45691 2.05809 3.27352 15.1686 -0.0 0.0 -0.0 10.6851 7.54076 -21.3371 9.38358 20.8052 -65.8327 0.720996 19.6547 -0.124894 38.3051 0.264052 4.79616 -0.419518 -2.86563 1.57435 0.0 0.0 0.0 27.6106 -4.3127 -10.3588 4.34824 -0.203326 -0.636005 -15.3724 29.2717 2.46157 -14.0598 0.0 0.0 -0.0 0.0 -0.0 11.0696 3.61056 -2.26504 -32.3524 0.0532031 -4.89931 26.0511 11.2338 3.62387 3.18477 -0.0 -0.0 0.0 0.0 0.0 
1041.4 574.639 -1682.42 -6.47223097921 31.4924247453 7.25779900193 3.50254 0.0303544 -0.346971 3.50261 0.0523714 -0.344336 3.50226 0.103451 -0.332578 3.50211 0.0496286 -0.344742 -10.752 10.8384 -1.55057 -10.9349 21.4916 1.38777 -0.0 0.0 -0.0 4.71311 21.9229 9.25218 -36.0167 -37.5084 64.3773 0.281276 -7.93246 0.0195022 -45.9899 -3.60952 4.45691 2.05809 3.27352 15.1686 -0.0 0.0 -0.0 10.6851 7.54076 -21.3371 9.38358 20.8052 -65.8327 0.720996 19.6547 -0.124894 38.3051 0.264052 4.79616 -0.419518 -2.86563 1.57435 0.0 0.0 0.0 27.6106 -4.3127 -10.3588 4.34824 -0.203326 -0.636005 -15.3724 29.2717 2.46157 -14.0598 0.0 0.0 -0.0 0.0 -0.0 11.0696 3.61056 -2.26504 -32.3524 0.0532031 -4.89931 26.0511 11.2338 3.62387 3.18477 -0.0 -0.0 0.0 0.0 0.0 
1041.4 574.639 -1682.42 -6.51190722273 32.0553289968 7.33314680545 3.50254 0.0303544 -0.346971 3.50261 0.0523714 -0.344336 3.50226 0.103451 -0.332578 3.50211 0.0496286 -0.344742 -10.752 10.8384 -1.55057 -10.9349 21.4916 1.38777 -0.0 0.0 -0.0 4.71311 21.9229 9.25218 -36.0167 -37.5084 64.3773 0.281276 -7.93246 0.0195022 -45.9899 -3.60952 4.45691 2.05809 3.27352 15.1686 -0.0 0.0 -0.0 10.6851 7.54076 -21.3371 9.38358 20.8052 -65.8327 0.720996 19.6547 -0.124894 38.3051 0.264052 4.79616 -0.419518 -2.86563 1.57435 0.0 0.0 0.0 27.6106 -4.3127 -10.3588 4.34824 -0.203326 -0.636005 -15.3724 29.2717 2.46157 -14.0598 0.0 0.0 -0.0 0.0 -0.0 11.0696 3.61056 -2.26504 -32.3524 0.0532031 -4.89931 26.0511 11.2338 3.62387 3.18477 -0.0 -0.0 0.0 0.0 0.0 
1041.4 574.639 -1682.42 -6.53009788683 32.3082150143 7.36730072751 3.50254 0.0303544 -0.346971 3.50261 0.0523714 -0.344336 3.50226 0.103451 -0.332578 3.50211 0.0496286 -0.344742 -10.752 10.8384 -1.55057 -10.9349 21.4916 1.38777 -0.0 0.0 -0.0 4.71311 21.9229 9.25218 -36.0167 -37.5084 64.3773 0.281276 -7.93246 0.0195022 -45.9899 -3.60952 4.45691 2.05809 3.27352 15.1686 -0.0 0.0 -0.0 10.6851 7.54076 -21.3371 9.38358 20.8052 -65.8327 0.720996 19.6547 -0.124894 38.3051 0.264052 4.79616 -0.419518 -2.86563 1.57435 0.0 0.0 0.0 27.6106 -4.3127 -10.3588 4.34824 -0.203326 -0.636005 -15.3724 29.2717 2.46157 -14.0598 0.0 0.0 -0.0 0.0 -0.0 11.0696 3.61056 -2.26504 -32.3524 0.0532031 -4.89931 26.0511 11.2338 3.62387 3.18477 -0.0 -0.0 0.0 0.0 0.0 
1019.94599842 579.025 -1689.51032441 -7.34902859629 31.3584047123 8.13435304004 3.27299 -0.0217578 -0.334196 3.27305 -0.000448054 -0.334903 3.27303 0.0511379 -0.330976 3.27287 -0.00177514 -0.334899 -11.4235 10.8727 -1.41691 -11.6444 21.5021 1.65937 -0.0 0.0 -0.0 5.78972 22.1243 10.8018 -36.4741 -37.4331 61.3725 0.395545 -11.0864 0.0383877 -45.665 -3.57277 4.4372 1.95939 3.67747 14.6468 -0.0 0.0 -0.0 10.5526 5.6038 -21.0202 8.2676 20.9607 -66.1911 0.747739 20.325 -0.134036 39.1278 0.304674 4.89321 -0.271099 -2.23617 0.858898 0.0 0.0 0.0 28.2833 -4.38977 -10.3244 1.70257 -0.0738458 -0.250813 -15.4473 28.7657 2.46563 -13.2199 0.0 0.0 -0.0 0.0 -0.0 10.7451 5.28979 -1.8939 -31.7323 0.0261746 -4.80799 23.466 10.8479 3.30591 2.25238 -0.0 -0.0 0.0 0.0 0.0 
1001.00047062 581.003 -1699.38736135 -7.58648140064 30.4096973479 8.11652535839 3.48741 -0.00950319 -0.417829 3.48751 0.0171034 -0.417587 3.48734 0.0796814 -0.410272 3.48711 0.0138872 -0.417707 -10.7755 10.8488 -2.15417 -10.96 21.9097 0.811787 -0.0 0.0 -0.0 5.93545 20.8291 11.0886 -35.6115 -37.4279 61.7574 0.341782 -9.60976 0.0287297 -44.5986 -3.45296 4.37103 2.30503 -0.90639 15.2318 -0.0 0.0 -0.0 9.95836 5.74256 -19.7437 6.40108 23.2127 -67.2598 0.692222 18.9272 -0.115388 39.0394 0.300245 4.88282 0.0608189 -3.44018 -1.84466 0.0 0.0 0.0 28.2529 -4.77811 -10.0254 -0.531335 0.0215137 0.0787009 -14.7792 29.2906 2.36573 -11.9365 0.0 0.0 -0.0 0.0 -0.0 9.69214 5.76293 -0.973919 -31.0031 -0.00433824 -4.70026 24.0161 13.6873 3.43086 2.2079 -0.0 -0.0 0.0 0.0 0.0 
980.952502706 582.816 -1701.75368718 -6.06093696595 28.9867994936 6.24833415182 3.13938 -0.0344114 -0.330199 3.13944 -0.0133303 -0.33172 3.1395 0.0386873 -0.329726 3.13935 -0.0138719 -0.331697 -10.0971 11.1987 -1.08547 -10.2549 21.826 1.80681 -0.0 0.0 -0.0 6.21181 21.4247 11.4628 -35.134 -37.7294 61.5712 0.38777 -10.8737 0.0369068 -46.0661 -3.61815 4.46151 1.10094 2.80124 8.49921 -0.0 0.0 -0.0 9.69782 6.11868 -19.1897 3.33182 20.4627 -65.6167 0.88198 23.6006 -0.184263 38.5152 0.274293 4.821 0.242948 -3.13355 -2.92271 0.0 0.0 0.0 27.8216 -6.19722 -9.10933 -4.72153 0.165401 0.705533 -12.4978 28.3406 1.98418 -12.0546 0.0 0.0 -0.0 0.0 -0.0 8.45074 7.85076 0.84987 -31.6926 0.024478 -4.80214 23.3034 12.769 3.32315 1.7161 -0.0 -0.0 0.0 0.0 0.0 
947.236263309 590.362 -1726.07729856 -5.44078738233 27.4741969246 5.37238732639 3.46286 0.0970571 -0.36212 3.46292 0.119903 -0.35521 3.46215 0.172084 -0.333074 3.46201 0.117322 -0.356071 -12.9549 12.1204 1.58194 -13.2764 22.0756 5.20681 -0.0 0.0 -0.0 9.64426 21.5426 16.6373 -44.2822 -32.4334 51.0776 0.588484 -16.2525 0.0840292 -44.3634 -3.42671 4.35614 2.06465 0.144121 13.9896 -0.0 0.0 -0.0 8.63251 -1.54949 -16.813 -9.80431 25.6095 -64.8432 0.667798 18.3047 -0.107591 35.7368 0.146286 4.48965 0.812682 -1.34384 -5.98355 0.0 0.0 0.0 32.581 -4.72003 -7.76936 -18.9472 0.306681 2.8782 -14.163 29.0911 2.26294 -8.0936 0.0 0.0 -0.0 0.0 -0.0 10.7672 13.294 -0.563741 -35.4023 0.200463 -5.34399 22.4019 7.45185 3.12102 1.9557 -0.0 -0.0 0.0 0.0 0.0 
